<svg width="1519" height="529" viewBox="0 0 1519 529" fill="none" xmlns="http://www.w3.org/2000/svg">
<path d="M1239.75 161.371L1364.47 316.977L1170 204.699L1239.75 161.371Z" fill="url(#paint0_linear_858_23)" fill-opacity="0.61"/>
<path d="M1044.47 143.549L892.408 186.263L1069.38 48.0365L1044.47 143.549Z" fill="url(#paint1_linear_858_23)" fill-opacity="0.61"/>
<path d="M707 500.5L618.255 479.075L821.2 402.496L707 500.5Z" fill="url(#paint2_linear_858_23)" fill-opacity="0.61"/>
<path d="M1510.46 406.805L1372.08 475.15L1358.86 366.594L1510.46 406.805Z" fill="url(#paint3_linear_858_23)" fill-opacity="0.61"/>
<path d="M44.2097 379.387L160.766 405.18L87.0747 503.913L44.2097 379.387Z" fill="url(#paint4_linear_858_23)" fill-opacity="0.61"/>
<path d="M1455.5 112.909L1430.42 233.315L1317.77 92.3018L1455.5 112.909Z" fill="url(#paint5_linear_858_23)" fill-opacity="0.61"/>
<path d="M560 73.6155L727.38 122.346L634.644 173.997L560 73.6155Z" fill="url(#paint6_linear_858_23)" fill-opacity="0.61"/>
<path d="M297.642 109.059L479.81 74.5898L354.371 206.388L297.642 109.059Z" fill="url(#paint7_linear_858_23)" fill-opacity="0.61"/>
<path d="M72.4939 261.422L144.341 106L204.155 192.935L72.4939 261.422Z" fill="url(#paint8_linear_858_23)" fill-opacity="0.61"/>
<path d="M1294.1 484.611L1168.89 431.875L1245.32 335.549L1294.1 484.611Z" fill="url(#paint9_linear_858_23)" fill-opacity="0.61"/>
<path d="M243.255 470.596L205.1 306L388.394 439.412L243.255 470.596Z" fill="url(#paint10_linear_858_23)" fill-opacity="0.61"/>
<defs>
<linearGradient id="paint0_linear_858_23" x1="1303.43" y1="198.139" x2="1267.23" y2="260.838" gradientUnits="userSpaceOnUse">
<stop offset="0.351479" stop-color="#AF8E6D" stop-opacity="0.4"/>
<stop offset="1" stop-color="#D2A87E" stop-opacity="0"/>
</linearGradient>
<linearGradient id="paint1_linear_858_23" x1="1050.77" y1="137.071" x2="1013.5" y2="75.2043" gradientUnits="userSpaceOnUse">
<stop stop-color="%93f6fffab4" stop-opacity="0.5"/>
<stop offset="0.887734" stop-color="#D2A87E" stop-opacity="0"/>
</linearGradient>
<linearGradient id="paint2_linear_858_23" x1="732" y1="478" x2="701.783" y2="381.994" gradientUnits="userSpaceOnUse">
<stop stop-color="#AF8E6D" stop-opacity="0.5"/>
<stop offset="0.369504" stop-color="#D2A87E" stop-opacity="0"/>
</linearGradient>
<linearGradient id="paint3_linear_858_23" x1="1474.53" y1="398.399" x2="1196.36" y2="442.449" gradientUnits="userSpaceOnUse">
<stop offset="0.0262137" stop-color="#AF8E6D" stop-opacity="0.5"/>
<stop offset="0.431797" stop-color="#D2A87E" stop-opacity="0"/>
</linearGradient>
<linearGradient id="paint4_linear_858_23" x1="23" y1="454" x2="243.068" y2="504.668" gradientUnits="userSpaceOnUse">
<stop offset="0.14968" stop-color="#AF8E6D" stop-opacity="0.5"/>
<stop offset="0.495464" stop-color="#D2A87E" stop-opacity="0"/>
</linearGradient>
<linearGradient id="paint5_linear_858_23" x1="1450.1" y1="98.1375" x2="1255.82" y2="259.652" gradientUnits="userSpaceOnUse">
<stop offset="0.1875" stop-color="#AF8E6D" stop-opacity="0.5"/>
<stop offset="0.427083" stop-color="#D2A87E" stop-opacity="0"/>
</linearGradient>
<linearGradient id="paint6_linear_858_23" x1="531" y1="37" x2="559.368" y2="196.799" gradientUnits="userSpaceOnUse">
<stop offset="0.25967" stop-color="#AF8E6D" stop-opacity="0.5"/>
<stop offset="0.891769" stop-color="#D2A87E" stop-opacity="0"/>
</linearGradient>
<linearGradient id="paint7_linear_858_23" x1="346.552" y1="53.2631" x2="417.09" y2="140.489" gradientUnits="userSpaceOnUse">
<stop offset="0.25816" stop-color="#AF8E6D" stop-opacity="0.45"/>
<stop offset="1" stop-color="#D2A87E" stop-opacity="0"/>
</linearGradient>
<linearGradient id="paint8_linear_858_23" x1="52.9067" y1="232.954" x2="174.248" y2="149.467" gradientUnits="userSpaceOnUse">
<stop offset="0.239583" stop-color="#AF8E6D" stop-opacity="0.45"/>
<stop offset="1" stop-color="#D2A87E" stop-opacity="0"/>
</linearGradient>
<linearGradient id="paint9_linear_858_23" x1="1324.74" y1="418.15" x2="1268.1" y2="340.435" gradientUnits="userSpaceOnUse">
<stop offset="0.239583" stop-color="#AF8E6D" stop-opacity="0.4"/>
<stop offset="1" stop-color="#D2A87E" stop-opacity="0"/>
</linearGradient>
<linearGradient id="paint10_linear_858_23" x1="214.425" y1="501.194" x2="430.344" y2="297.881" gradientUnits="userSpaceOnUse">
<stop offset="0.179308" stop-color="#AF8E6D" stop-opacity="0.45"/>
<stop offset="0.578736" stop-color="#D2A87E" stop-opacity="0"/>
</linearGradient>
</defs>
</svg>
