<svg xmlns="http://www.w3.org/2000/svg" width="118" height="180" fill="000"><path fill="#537528" stroke="#537528" d="M83.099 129.578c6.257 6.688 5.765 19.221-1.358 28.015-7.123 8.795-17.969 10.261-24.226 3.573-6.257-6.689-5.765-19.221 1.358-28.016 7.123-8.795 17.969-10.26 24.226-3.572Z"/><path stroke="#537528" stroke-width="8" d="M81.939 133.721 10.662 39.518"/><path fill="#537528" d="M57.622 43.907C39.094 41.243 31.344 42.026.536 33.355L19 57c2.537 3.39 10.297-2.203 34.674-1.94 19.515.211 27.472 6.324 44.508 34.56-6.954-22.854-8.408-41.089-40.56-45.713Z"/><path fill="#537528" d="M32.117 64.493c26.247-.448 25.085-3.246 45.988 2.497l.073.02c6.643 1.824 23.008 6.319 23.789 52.081-10.346-29.36-14.02-41.88-33.536-42.09-22.372-.243-28.953 1.525-30.517 2.773L38 80c1.207 1.612-1.505.907-.086-.226l-5.797-15.28Z"/></svg>